<svg xmlns="http://www.w3.org/2000/svg"  viewBox="0 0 16 16" width="16px" height="16px"><path fill="#8585cc" d="M3.8,0.5C2,0.5,0.5,2,0.5,3.8v7.5c0,1.8,1.5,3.3,3.3,3.3h7.5c1.8,0,3.3-1.5,3.3-3.3V3.8 c0-1.8-1.5-3.3-3.3-3.3H3.8z"/><path fill="#8d8dd8" d="M0.5,3.8v7.5c0,1.8,1.5,3.3,3.3,3.3h7.5c1.8,0,3.3-1.5,3.3-3.3V3.8c0-0.2,0-0.4-0.1-0.6 C12.1,1.8,9.4,1,6.5,1C4.6,1,2.7,1.4,1,2C0.7,2.5,0.5,3.1,0.5,3.8z"/><path fill="#bd82f4" d="M0.5,11.2c0,1.8,1.5,3.3,3.3,3.3h7.5c1.8,0,3.3-1.5,3.3-3.3V5.6C12.3,4,9.5,3,6.5,3 c-2.2,0-4.2,0.5-6,1.4V11.2z"/><path fill="#f97dcd" d="M0.5,11.2c0,1.8,1.5,3.3,3.3,3.3h7.5c1.8,0,3.3-1.5,3.3-3.3v-3c-2.1-2-4.9-3.2-8-3.2 c-2.2,0-4.3,0.6-6,1.7V11.2z"/><path fill="#fc9c95" d="M0.5,11.2c0,1.8,1.5,3.3,3.3,3.3h7.5c1.8,0,3.2-1.4,3.3-3.1C12.8,8.7,9.9,7,6.5,7 c-2.3,0-4.4,0.8-6,2.1V11.2z"/><path fill="#ffc49c" d="M0.6,11.9c0.3,1.5,1.6,2.6,3.2,2.6h7.5c0.9,0,1.6-0.3,2.2-0.9C12.3,10.9,9.6,9,6.5,9 C4.1,9,1.9,10.1,0.6,11.9z"/><path fill="#ffde8d" d="M1.7,13.8c0.6,0.4,1.3,0.7,2,0.7h7.5c0.1,0,0.2,0,0.4,0c-0.8-2-2.8-3.5-5.1-3.5 C4.5,11,2.7,12.1,1.7,13.8z"/><path fill="#fff69f" d="M3.8,14.5h5.6C8.7,13.6,7.7,13,6.5,13c-1.2,0-2.2,0.6-2.9,1.5C3.7,14.5,3.7,14.5,3.8,14.5z"/><path fill="#8b75a1" d="M11.5,1C12.9,1,14,2.1,14,3.5v8c0,1.4-1.1,2.5-2.5,2.5h-8C2.1,14,1,12.9,1,11.5v-8C1,2.1,2.1,1,3.5,1 H11.5 M11.5,0h-8C1.6,0,0,1.6,0,3.5v8C0,13.4,1.6,15,3.5,15h8c1.9,0,3.5-1.6,3.5-3.5v-8C15,1.6,13.4,0,11.5,0L11.5,0z"/><path fill="#fff" d="M7.5,10C6.1,10,5,8.9,5,7.5S6.1,5,7.5,5S10,6.1,10,7.5S8.9,10,7.5,10z M7.5,6C6.7,6,6,6.7,6,7.5 S6.7,9,7.5,9S9,8.3,9,7.5S8.3,6,7.5,6z"/><path fill="#fff" d="M9.5,13h-4C3.6,13,2,11.4,2,9.5v-4C2,3.6,3.6,2,5.5,2h4C11.4,2,13,3.6,13,5.5v4 C13,11.4,11.4,13,9.5,13z M5.5,3C4.1,3,3,4.1,3,5.5v4C3,10.9,4.1,12,5.5,12h4c1.4,0,2.5-1.1,2.5-2.5v-4C12,4.1,10.9,3,9.5,3H5.5z"/><path fill="#fff" d="M10.5 4A0.5 0.5 0 1 0 10.5 5A0.5 0.5 0 1 0 10.5 4Z"/></svg>